<?xml version="1.0" standalone="no"?>
<!DOCTYPE svg PUBLIC "-//W3C//DTD SVG 20010904//EN"
 "http://www.w3.org/TR/2001/REC-SVG-20010904/DTD/svg10.dtd">
<svg version="1.0" xmlns="http://www.w3.org/2000/svg"
 width="296.000000pt" height="139.000000pt" viewBox="0 0 296.000000 139.000000"
 preserveAspectRatio="xMidYMid meet">
<metadata>
masterxcorp m
</metadata>
<g transform="translate(0.000000,139.000000) scale(0.100000,-0.100000)"
fill="#ea4335" stroke="none">
<path d="M210 1188 c0 -14 0 -14 208 -148 l142 -92 0 -247 0 -246 -175 -110
c-96 -60 -175 -116 -175 -122 0 -10 253 -13 1230 -13 990 0 1230 2 1230 13 0
7 -79 62 -175 122 l-174 110 -1 246 0 247 175 113 c96 62 175 119 175 126 0
10 -106 13 -550 13 -516 0 -551 -1 -556 -17 -4 -10 -13 -34 -21 -53 -24 -58
-33 -79 -42 -102 -10 -25 -36 -89 -53 -128 -14 -33 -25 -61 -32 -82 -12 -37
-21 -26 -66 77 -12 28 -27 64 -35 80 -7 17 -22 50 -33 75 -10 25 -30 69 -43
98 l-24 52 -502 0 c-396 0 -503 -3 -503 -12z m1610 -481 l-1 -252 -154 -102
c-85 -56 -156 -99 -158 -95 -3 4 59 158 137 342 78 184 145 343 149 353 4 10
11 15 17 12 6 -4 10 -99 10 -258z m-795 -115 c80 -184 144 -336 142 -339 -3
-2 -73 41 -156 96 l-151 101 0 253 c0 147 4 246 9 237 5 -8 75 -165 156 -348z"/>
</g>
</svg>
